<svg xmlns="http://www.w3.org/2000/svg" xmlns:xlink="http://www.w3.org/1999/xlink" width="100" height="100" viewBox="0 0 100 100">
  <defs>
    <style>
      .cls-1 {
        clip-path: url(#clip-Artboard_1);
      }

      .cls-2 {
        fill: #1a1818;
      }

      .cls-3 {
        fill: #fff;
      }
    </style>
    <clipPath id="clip-Artboard_1">
      <rect width="100" height="100"/>
    </clipPath>
  </defs>
  <g id="Artboard_1" data-name="Artboard 1" class="cls-1">
    <rect class="cls-3" width="100" height="100"/>
    <g id="BASE">
      <path id="Rectangle_1" data-name="Rectangle 1" class="cls-2" d="M10,2.512A7.5,7.5,0,0,0,2.512,10V89.929A7.5,7.5,0,0,0,10,97.417H89.945a7.5,7.5,0,0,0,7.488-7.488V10a7.5,7.5,0,0,0-7.488-7.488H10M10,0H89.945a10,10,0,0,1,10,10V89.929a10,10,0,0,1-10,10H10a10,10,0,0,1-10-10V10A10,10,0,0,1,10,0Z" transform="translate(0.021 0.024)"/>
    </g>
    <g id="Wizard">
      <path id="Path_17" data-name="Path 17" class="cls-2" d="M29.044,32.377l-.689-2.4,1.2-.344a112.058,112.058,0,0,1,32.838-4.171l1.25.032-.064,2.5-1.25-.032a109.49,109.49,0,0,0-32.086,4.075Z"/>
      <path id="Path_18" data-name="Path 18" class="cls-2" d="M41.818,28.638l-2.487-.25,1.254-12.466.653-.3c1.677-.766,5.756-1.87,8.034-1.083.883.305,1.921,1.274,3.53,6.251.824,2.55,1.418,4.981,1.443,5.083l-2.429.591c-.005-.022-.547-2.241-1.29-4.585-1.25-3.945-1.991-4.844-2.15-5-1.132-.329-3.685.107-5.45.755Z"/>
      <path id="Path_19" data-name="Path 19" class="cls-2" d="M8.308,86.537l-.852-2.35,1.175-.426C40.8,72.094,39.53,41.154,34.361,26.424l-.414-1.18,2.359-.828.414,1.18a54.3,54.3,0,0,1,2.961,16,49.139,49.139,0,0,1-2.418,17.248,41.406,41.406,0,0,1-9.53,15.793A47.606,47.606,0,0,1,9.483,86.111Z"/>
      <path id="Path_20" data-name="Path 20" class="cls-2" d="M79.006,84.334l-1.072-.643a17.783,17.783,0,0,1-5.461-5.074,24.568,24.568,0,0,1-3.237-6.661c-1.566-4.784-2.213-10.3-2.9-16.131C65.019,44.594,63.655,32.98,55.781,23.846l-.816-.947,1.894-1.632.816.947A40.6,40.6,0,0,1,65.917,38.4a115.111,115.111,0,0,1,2.9,17.134c1.34,11.415,2.5,21.273,10.4,26.013l1.072.643Z"/>
      <path id="Path_21" data-name="Path 21" class="cls-2" d="M42.6,86.119q-1.654,0-3.34-.058a110.44,110.44,0,0,1-18.195-2.2A81.533,81.533,0,0,1,8.937,80.475l-1.166-.451.9-2.331,1.166.451a99.5,99.5,0,0,0,29.51,5.42c10.992.379,26.65-1.031,38.822-9.9l1.01-.736,1.472,2.021-1.01.736A52.883,52.883,0,0,1,59.988,84.3,79.1,79.1,0,0,1,42.6,86.119Z"/>
      <path id="Path_22" data-name="Path 22" class="cls-2" d="M89.523,44.554,83.664,41.89a35.853,35.853,0,0,0-10.6-2.212c-4.443-.343-8.125-.038-9.851.814l-1.121.554-1.108-2.241,1.121-.554c2.933-1.45,8.245-1.29,11.151-1.066a48.763,48.763,0,0,1,7.56,1.162,19.481,19.481,0,0,1-2.132-5.158,15.254,15.254,0,0,1-.478-4.71,41.579,41.579,0,0,1-7.981,3.73c-3.905,1.376-7.765,2.208-9.6,2.072l-1.247-.092.185-2.493,1.247.092c1.238.092,4.669-.556,8.589-1.937,4.408-1.553,7.97-3.475,10.03-5.414l5.292-4.98L81.392,25.92a9.853,9.853,0,0,0-.284,6.659,16.882,16.882,0,0,0,3.979,7.311Z"/>
      <path id="Ellipse_1" data-name="Ellipse 1" class="cls-2" d="M4.8-.75A5.55,5.55,0,1,1-.75,4.8,5.556,5.556,0,0,1,4.8-.75Zm0,9.6A4.05,4.05,0,1,0,.75,4.8,4.055,4.055,0,0,0,4.8,8.85Z" transform="translate(83.543 26.341)"/>
      <circle id="Ellipse_2" data-name="Ellipse 2" class="cls-2" cx="0.828" cy="0.828" r="0.828" transform="translate(45.066 19.682)"/>
      <circle id="Ellipse_3" data-name="Ellipse 3" class="cls-2" cx="0.828" cy="0.828" r="0.828" transform="translate(47.407 19.682)"/>
      <path id="Path_23" data-name="Path 23" class="cls-2" d="M14.608,57.148l5.727-3.411C29.914,48.031,37,38.464,39.768,31.513l2.322.926a47.437,47.437,0,0,1-7.834,12.556,54.038,54.038,0,0,1-8.615,8.178,15.219,15.219,0,0,1,6.964,1.4L31.37,56.748l.009,0a9.5,9.5,0,0,0-2.534-.782,21.9,21.9,0,0,0-7.662.073Z"/>
    </g>
  </g>
</svg>
